<?xml version="1.0" encoding="UTF-8" standalone="no"?>
<!DOCTYPE svg PUBLIC "-//W3C//DTD SVG 1.1//EN" "http://www.w3.org/Graphics/SVG/1.1/DTD/svg11.dtd">
<svg width="100%" height="100%" viewBox="0 0 351 107" version="1.1" xmlns="http://www.w3.org/2000/svg" xmlns:xlink="http://www.w3.org/1999/xlink" xml:space="preserve" xmlns:serif="http://www.serif.com/" style="fill-rule:evenodd;clip-rule:evenodd;stroke-linejoin:round;stroke-miterlimit:2;">
    <g transform="matrix(0.991363,0,0,0.99116,-237.869,-365.205)">
        <g transform="matrix(1,0,0,1,376.169,416.859)">
            <path d="M0,-5.997L0,-2.809C0,-2.809 5.669,0.372 13.254,0.372C20.836,0.372 27.219,-3.032 27.219,-3.032C27.219,-3.032 32.322,0.298 41.823,0.298C49.33,0.298 54.513,-3.108 54.513,-3.108C54.513,-3.108 60.34,0.372 69.126,0.372C76.311,0.372 81.652,-2.809 81.652,-2.809L81.652,-5.923C81.652,-5.923 75.904,-2.587 68.883,-2.587C60.262,-2.587 54.676,-6.369 54.676,-6.369C54.676,-6.369 47.412,-2.442 41.505,-2.442C34.004,-2.442 27.219,-6.369 27.219,-6.369C27.219,-6.369 21.393,-2.587 13.414,-2.587C5.428,-2.587 0,-5.997 0,-5.997" style="fill:rgb(36,64,142);fill-rule:nonzero;"/>
        </g>
        <g transform="matrix(1,0,0,1,376.169,424.75)">
            <path d="M0,-6.006L0,-2.817C0,-2.817 5.669,0.373 13.254,0.373C20.836,0.373 27.219,-3.042 27.219,-3.042C27.219,-3.042 32.322,0.297 41.823,0.297C49.33,0.297 54.513,-3.116 54.513,-3.116C54.513,-3.116 60.34,0.373 69.126,0.373C76.311,0.373 81.652,-2.817 81.652,-2.817L81.652,-5.931C81.652,-5.931 75.904,-2.6 68.883,-2.6C60.262,-2.6 54.676,-6.379 54.676,-6.379C54.676,-6.379 47.412,-2.446 41.505,-2.446C34.004,-2.446 27.219,-6.379 27.219,-6.379C27.219,-6.379 21.393,-2.6 13.414,-2.6C5.428,-2.6 0,-6.006 0,-6.006" style="fill:rgb(36,64,142);fill-rule:nonzero;"/>
        </g>
        <g transform="matrix(1,0,0,1,376.169,432.633)">
            <path d="M0,-6.011L0,-2.82C0,-2.82 5.669,0.368 13.254,0.368C20.836,0.368 27.219,-3.038 27.219,-3.038C27.219,-3.038 32.322,0.296 41.823,0.296C49.33,0.296 54.513,-3.117 54.513,-3.117C54.513,-3.117 60.34,0.368 69.126,0.368C76.311,0.368 81.652,-2.82 81.652,-2.82L81.652,-5.933C81.652,-5.933 75.904,-2.597 68.883,-2.597C60.262,-2.597 54.676,-6.379 54.676,-6.379C54.676,-6.379 47.412,-2.451 41.505,-2.451C34.004,-2.451 27.219,-6.379 27.219,-6.379C27.219,-6.379 21.393,-2.597 13.414,-2.597C5.428,-2.597 0,-6.011 0,-6.011" style="fill:rgb(36,64,142);fill-rule:nonzero;"/>
        </g>
        <g transform="matrix(1,0,0,1,293.39,472.762)">
            <path d="M0,-0.562L0.703,-0.562C1.508,-0.562 1.966,-0.92 1.966,-1.513C1.966,-2.087 1.508,-2.376 0.66,-2.376L0,-2.376L0,-0.562ZM-0.002,0.162L-0.002,2.575L-1.16,2.575L-1.16,-3.137L0.812,-3.137C2.359,-3.137 3.037,-2.552 3.037,-1.544C3.037,-0.584 2.408,-0.084 1.261,0.016C1.43,0.175 1.619,0.391 1.838,0.618L3.633,2.575L2.18,2.575L-0.002,0.162Z" style="fill:rgb(35,31,32);fill-rule:nonzero;"/>
        </g>
        <g transform="matrix(1,0,0,1,327.227,472.762)">
            <path d="M0,-0.562L0.701,-0.562C1.506,-0.562 1.965,-0.92 1.965,-1.513C1.965,-2.087 1.504,-2.376 0.663,-2.376L0,-2.376L0,-0.562ZM-0.002,0.162L-0.002,2.575L-1.16,2.575L-1.16,-3.137L0.815,-3.137C2.358,-3.137 3.041,-2.552 3.041,-1.544C3.041,-0.584 2.408,-0.084 1.26,0.016C1.426,0.175 1.617,0.391 1.835,0.618L3.633,2.575L2.178,2.575L-0.002,0.162Z" style="fill:rgb(35,31,32);fill-rule:nonzero;"/>
        </g>
        <g transform="matrix(1,0,0,1,368.88,472.76)">
            <path d="M0,-0.569L0.701,-0.569C1.506,-0.569 1.967,-0.923 1.967,-1.511C1.967,-2.09 1.5,-2.375 0.662,-2.375L0,-2.375L0,-0.569ZM0,0.159L0,2.573L-1.162,2.573L-1.158,-3.142L0.816,-3.142C2.359,-3.142 3.04,-2.555 3.04,-1.545C3.04,-0.587 2.408,-0.083 1.262,0.018C1.424,0.17 1.617,0.393 1.832,0.62L3.633,2.573L2.182,2.573L0,0.159Z" style="fill:rgb(35,31,32);fill-rule:nonzero;"/>
        </g>
        <g transform="matrix(1,0,0,1,545.692,472.76)">
            <path d="M0,-0.569L0.707,-0.569C1.508,-0.569 1.971,-0.923 1.971,-1.511C1.971,-2.09 1.508,-2.375 0.664,-2.375L0,-2.375L0,-0.569ZM0,0.159L0,2.573L-1.162,2.573L-1.162,-3.142L0.818,-3.142C2.357,-3.142 3.043,-2.555 3.043,-1.545C3.043,-0.587 2.414,-0.083 1.262,0.018C1.43,0.17 1.623,0.393 1.838,0.62L3.635,2.573L2.182,2.573L0,0.159Z" style="fill:rgb(35,31,32);fill-rule:nonzero;"/>
        </g>
        <g transform="matrix(1,0,0,1,320.755,474.56)">
            <path d="M0,-4.149C-1.082,-4.149 -2.039,-3.437 -2.039,-2.105C-2.039,-0.948 -1.49,-0.006 -0.039,-0.006C1.125,-0.006 2.041,-0.684 2.041,-2.044C2.041,-3.42 1.25,-4.149 0,-4.149M-0.113,0.852C-2.27,0.852 -3.277,-0.334 -3.277,-2.019C-3.277,-3.897 -1.721,-5.001 0.09,-5.001C2.041,-5.001 3.293,-4.002 3.293,-2.132C3.293,-0.228 1.76,0.852 -0.113,0.852" style="fill:rgb(35,31,32);fill-rule:nonzero;"/>
        </g>
        <g transform="matrix(1,0,0,1,344.66,474.56)">
            <path d="M0,-4.149C-1.083,-4.149 -2.042,-3.437 -2.042,-2.105C-2.042,-0.948 -1.492,-0.006 -0.038,-0.006C1.122,-0.006 2.04,-0.684 2.04,-2.044C2.04,-3.42 1.249,-4.149 0,-4.149M-0.112,0.852C-2.272,0.852 -3.28,-0.334 -3.28,-2.019C-3.28,-3.897 -1.721,-5.001 0.09,-5.001C2.04,-5.001 3.29,-4.002 3.29,-2.132C3.29,-0.228 1.759,0.852 -0.112,0.852" style="fill:rgb(35,31,32);fill-rule:nonzero;"/>
        </g>
        <g transform="matrix(1,0,0,1,492.423,474.555)">
            <path d="M0,-4.152C-1.085,-4.152 -2.041,-3.441 -2.041,-2.111C-2.041,-0.953 -1.494,-0.013 -0.039,-0.013C1.121,-0.013 2.037,-0.684 2.037,-2.044C2.037,-3.419 1.246,-4.152 0,-4.152M-0.116,0.853C-2.273,0.853 -3.278,-0.335 -3.278,-2.021C-3.278,-3.902 -1.721,-5.005 0.088,-5.005C2.037,-5.005 3.289,-4.011 3.289,-2.131C3.289,-0.229 1.758,0.853 -0.116,0.853" style="fill:rgb(35,31,32);fill-rule:nonzero;"/>
        </g>
        <g transform="matrix(1,0,0,1,507.925,474.561)">
            <path d="M0,-4.166L0,-0.033L1.395,-0.033C2.561,-0.033 3.477,-0.735 3.477,-2.05C3.477,-3.387 2.688,-4.166 1.437,-4.166L0,-4.166ZM-1.172,0.771L-1.172,-4.937L1.527,-4.937C3.477,-4.937 4.73,-3.955 4.73,-2.134C4.73,-0.288 3.197,0.771 1.326,0.771L-1.172,0.771Z" style="fill:rgb(35,31,32);fill-rule:nonzero;"/>
        </g>
        <g transform="matrix(1,0,0,1,453.976,475.036)">
            <path d="M0,-4.633C-1.082,-4.633 -2.034,-3.922 -2.034,-2.592C-2.034,-1.434 -1.486,-0.494 -0.033,-0.494C1.123,-0.494 2.044,-1.165 2.044,-2.525C2.044,-3.906 1.252,-4.633 0,-4.633M-0.111,0.372C-2.27,0.372 -3.273,-0.819 -3.273,-2.502C-3.273,-4.383 -1.716,-5.486 0.092,-5.486C2.044,-5.486 3.293,-4.492 3.293,-2.612C3.293,-1.565 2.83,-0.767 2.102,-0.263C2.102,-0.263 2.471,-0.176 3.003,-0.114C3.917,-0.015 4.465,-0.111 4.465,-0.111L4.465,0.766C4.465,0.766 3.835,0.853 3.406,0.817C2.373,0.73 1.041,0.41 0.726,0.401C0.41,0.389 -0.111,0.372 -0.111,0.372" style="fill:rgb(35,31,32);fill-rule:nonzero;"/>
        </g>
        <g transform="matrix(1,0,0,1,315.56,475.337)">
            <path d="M0,-5.719L1.213,-5.719L-1.135,-1.991L-1.135,0L-2.297,0L-2.297,-1.98L-4.604,-5.719L-3.316,-5.719L-1.665,-3.137L0,-5.719Z" style="fill:rgb(35,31,32);fill-rule:nonzero;"/>
        </g>
        <g transform="matrix(1,0,0,1,420.597,475.337)">
            <path d="M0,-5.723L1.215,-5.723L-1.131,-1.995L-1.131,0L-2.292,0L-2.292,-1.984L-4.603,-5.723L-3.314,-5.723L-1.666,-3.146L0,-5.723Z" style="fill:rgb(35,31,32);fill-rule:nonzero;"/>
        </g>
        <g transform="matrix(1,0,0,1,280.04,472.395)">
            <path d="M0,0.164L0.646,0.164C1.626,0.164 2.186,-0.225 2.186,-0.966C2.186,-1.574 1.705,-2.014 0.748,-2.014L0,-2.014L0,0.164ZM0.008,1.001L0.008,2.941L-1.152,2.941L-1.153,-2.777L0.877,-2.777C2.48,-2.777 3.309,-2.098 3.309,-0.992C3.309,0.234 2.305,1.007 0.62,1.007L0.008,1.001Z" style="fill:rgb(35,31,32);fill-rule:nonzero;"/>
        </g>
        <g transform="matrix(1,0,0,1,305.703,469.618)">
            <path d="M0,5.715L0,0L3.751,0L3.751,0.782L1.159,0.782L1.159,2.399L3.602,2.399L3.602,3.157L1.159,3.157L1.159,4.915L3.751,4.915L3.751,5.715L0,5.715Z" style="fill:rgb(35,31,32);fill-rule:nonzero;"/>
        </g>
        <g transform="matrix(1,0,0,1,361.979,469.613)">
            <path d="M0,5.716L0,0L3.748,0L3.748,0.781L1.156,0.781L1.156,2.398L3.596,2.398L3.596,3.156L1.156,3.156L1.156,4.919L3.748,4.919L3.748,5.716L0,5.716Z" style="fill:rgb(35,31,32);fill-rule:nonzero;"/>
        </g>
        <g transform="matrix(1,0,0,1,399.784,469.618)">
            <path d="M0,5.712L0,0L3.747,0L3.747,0.782L1.159,0.782L1.159,2.394L3.594,2.394L3.594,3.152L1.159,3.152L1.159,4.915L3.747,4.915L3.747,5.712L0,5.712Z" style="fill:rgb(35,31,32);fill-rule:nonzero;"/>
        </g>
        <g transform="matrix(1,0,0,1,514.417,469.618)">
            <path d="M0,5.712L0,0L3.75,0L3.75,0.782L1.158,0.782L1.158,2.394L3.594,2.394L3.594,3.152L1.158,3.152L1.158,4.915L3.75,4.915L3.75,5.712L0,5.712Z" style="fill:rgb(35,31,32);fill-rule:nonzero;"/>
        </g>
        <g transform="matrix(1,0,0,1,466.419,469.613)">
            <path d="M0,5.716L0,0L3.746,0L3.746,0.781L1.158,0.781L1.158,2.398L3.594,2.398L3.594,3.156L1.158,3.156L1.158,4.919L3.746,4.919L3.746,5.716L0,5.716Z" style="fill:rgb(35,31,32);fill-rule:nonzero;"/>
        </g>
        <g transform="matrix(1,0,0,1,472.174,469.613)">
            <path d="M0,5.716L0,0L3.749,0L3.749,0.781L1.157,0.781L1.157,2.398L3.594,2.398L3.594,3.156L1.157,3.156L1.157,4.919L3.749,4.919L3.749,5.716L0,5.716Z" style="fill:rgb(35,31,32);fill-rule:nonzero;"/>
        </g>
        <g transform="matrix(1,0,0,1,440.617,469.618)">
            <path d="M0,5.712L0,0L3.751,0L3.751,0.782L1.161,0.782L1.161,2.394L3.599,2.394L3.599,3.152L1.161,3.152L1.161,4.915L3.751,4.915L3.751,5.712L0,5.712Z" style="fill:rgb(35,31,32);fill-rule:nonzero;"/>
        </g>
        <g transform="matrix(1,0,0,1,497.528,469.618)">
            <path d="M0,5.712L0,0L3.746,0L3.746,0.782L1.162,0.782L1.162,2.394L3.596,2.394L3.596,3.152L1.162,3.152L1.162,5.712L0,5.712Z" style="fill:rgb(35,31,32);fill-rule:nonzero;"/>
        </g>
        <g transform="matrix(1,0,0,1,478.977,469.624)">
            <path d="M0,5.708L-1.121,5.708L-1.121,0L0.408,0L3.594,4.364L3.594,0L4.731,0L4.731,5.708L3.203,5.708L0,1.296L0,5.708Z" style="fill:rgb(35,31,32);fill-rule:nonzero;"/>
        </g>
        <g transform="matrix(1,0,0,1,521.255,469.624)">
            <path d="M0,5.708L-1.129,5.708L-1.129,0L0.408,0L3.594,4.364L3.594,0L4.732,0L4.732,5.708L3.201,5.708L0,1.296L0,5.708Z" style="fill:rgb(35,31,32);fill-rule:nonzero;"/>
        </g>
        <g transform="matrix(1,0,0,1,390.945,474.241)">
            <path d="M0,-3.537L-1.165,-0.832L1.161,-0.832L0,-3.537ZM1.983,1.091L1.457,-0.099L-1.485,-0.099L-2.009,1.091L-3.181,1.091L-0.59,-4.628L0.703,-4.628L3.268,1.091L1.983,1.091Z" style="fill:rgb(35,31,32);fill-rule:nonzero;"/>
        </g>
        <g transform="matrix(1,0,0,1,285.052,475.415)">
            <path d="M0,-5.797L1.126,-5.797L1.126,-2.149C1.126,-2.149 1.168,-0.864 2.574,-0.864C3.984,-0.864 3.977,-2.128 3.977,-2.128L3.977,-5.79L5.1,-5.79L5.1,-2.035C5.1,-2.035 5.22,0 2.545,0C-0.131,0 0,-2.019 0,-2.019L0,-5.797Z" style="fill:rgb(35,31,32);fill-rule:nonzero;"/>
        </g>
        <g transform="matrix(1,0,0,1,459.077,475.415)">
            <path d="M0,-5.797L1.133,-5.797L1.133,-2.149C1.133,-2.149 1.168,-0.864 2.579,-0.864C3.988,-0.864 3.975,-2.128 3.975,-2.128L3.975,-5.79L5.105,-5.79L5.105,-2.035C5.105,-2.035 5.219,0 2.545,0C-0.13,0 0,-2.019 0,-2.019L0,-5.797Z" style="fill:rgb(35,31,32);fill-rule:nonzero;"/>
        </g>
        <g transform="matrix(1,0,0,1,297.606,475.334)">
            <path d="M0,-5.71L1.275,-5.71L3.296,-1.315L5.336,-5.717L6.543,-5.717L3.906,0.007L2.609,0.007L0,-5.71Z" style="fill:rgb(35,31,32);fill-rule:nonzero;"/>
        </g>
        <g transform="matrix(1,0,0,1,337.538,469.618)">
            <path d="M0,5.712L1.166,5.712L1.166,0.777L3.105,0.777L3.105,0L-1.93,0L-1.93,0.777L0,0.777L0,5.712Z" style="fill:rgb(35,31,32);fill-rule:nonzero;"/>
        </g>
        <g transform="matrix(1,0,0,1,412.448,469.618)">
            <path d="M0,5.712L1.164,5.712L1.164,0.777L3.102,0.777L3.102,0L-1.929,0L-1.929,0.777L0,0.777L0,5.712Z" style="fill:rgb(35,31,32);fill-rule:nonzero;"/>
        </g>
        <g transform="matrix(1,0,0,1,428.604,469.618)">
            <path d="M0,5.712L1.168,5.712L1.168,0.777L3.1,0.777L3.1,0L-1.928,0L-1.928,0.777L0,0.777L0,5.712Z" style="fill:rgb(35,31,32);fill-rule:nonzero;"/>
        </g>
        <g transform="matrix(1,0,0,1,358.466,469.613)">
            <path d="M0,5.716L0,3.156L-3.141,3.156L-3.141,5.716L-4.307,5.716L-4.307,0L-3.141,0L-3.141,2.363L0,2.363L0,0L1.164,0L1.164,5.716L0,5.716Z" style="fill:rgb(35,31,32);fill-rule:nonzero;"/>
        </g>
        <g transform="matrix(1,0,0,1,437.217,469.613)">
            <path d="M0,5.716L0,3.156L-3.15,3.156L-3.15,5.716L-4.311,5.716L-4.311,0L-3.15,0L-3.15,2.363L0,2.363L0,0L1.161,0L1.161,5.716L0,5.716Z" style="fill:rgb(35,31,32);fill-rule:nonzero;"/>
        </g>
        <g transform="matrix(1,0,0,1,378.133,469.613)">
            <path d="M0,5.723L1.071,5.723L1.925,1.166L3.69,5.719L4.786,5.719L6.554,1.17L7.401,5.723L8.485,5.723L7.493,0.004L5.968,0.004L4.237,4.471L2.509,0L0.983,0L0,5.723Z" style="fill:rgb(35,31,32);fill-rule:nonzero;"/>
        </g>
        <g transform="matrix(1,0,0,1,527.741,469.613)">
            <path d="M0,5.723L1.072,5.723L1.922,1.166L3.689,5.719L4.787,5.719L6.551,1.17L7.4,5.723L8.486,5.723L7.494,0.004L5.969,0.004L4.236,4.471L2.508,0L0.978,0L0,5.723Z" style="fill:rgb(35,31,32);fill-rule:nonzero;"/>
        </g>
        <g transform="matrix(1,0,0,1,406.964,469.6)">
            <path d="M0,5.803C-0.486,5.803 -1.062,5.737 -1.437,5.662L-1.436,4.712C-1.037,4.862 -0.436,4.971 0.142,4.971C0.855,4.971 1.56,4.721 1.56,4.074C1.56,2.959 -1.592,3.498 -1.592,1.692C-1.592,0.666 -0.614,0 1.084,0C1.482,0 2.017,0.03 2.402,0.093L2.398,1C2.041,0.903 1.431,0.785 1.015,0.785C0.07,0.785 -0.454,1.102 -0.454,1.588C-0.454,2.678 2.803,2.184 2.803,3.968C2.803,5.257 1.609,5.803 0,5.803" style="fill:rgb(35,31,32);fill-rule:nonzero;"/>
        </g>
        <g transform="matrix(1,0,0,1,540.017,474.241)">
            <path d="M0,-3.537L-1.164,-0.832L1.158,-0.832L0,-3.537ZM1.984,1.091L1.459,-0.099L-1.484,-0.099L-2.012,1.091L-3.184,1.091L-0.588,-4.628L0.703,-4.628L3.271,1.091L1.984,1.091Z" style="fill:rgb(35,31,32);fill-rule:nonzero;"/>
        </g>
        <g transform="matrix(1,0,0,1,553.755,475.337)">
            <path d="M0,-5.719L-1.975,-3.156L-1.975,-5.719L-3.139,-5.719L-3.139,-0.014L-1.979,-0.014L-1.979,-2.406L0.203,0L1.65,0L-0.906,-2.766L1.453,-5.719L0,-5.719Z" style="fill:rgb(35,31,32);fill-rule:nonzero;"/>
        </g>
        <g transform="matrix(1,0,0,1,396.394,475.412)">
            <path d="M0,-5.794L1.176,-5.794L1.176,-1.81C1.176,-1.673 1.229,-0.677 0.633,-0.271C0.234,0 -0.272,-0.004 -0.272,-0.004L-1.199,-0.004L-1.199,-0.899L-1.022,-0.899C-1.022,-0.899 -0.463,-0.854 -0.234,-1.091C0.023,-1.354 0,-1.83 0,-1.83L0,-5.794Z" style="fill:rgb(35,31,32);fill-rule:nonzero;"/>
        </g>
        <g transform="matrix(1,0,0,1,245.382,452.914)">
            <path d="M0,-1.912L2.364,-1.912C5.064,-1.912 6.623,-3.109 6.623,-5.091C6.623,-7.049 5.059,-8.005 2.227,-8.005L0,-8.005L0,-1.912ZM-0.009,0.537L-0.009,8.67L-3.915,8.67L-3.912,-10.582L2.744,-10.582C7.935,-10.582 10.233,-8.592 10.233,-5.209C10.233,-1.969 8.107,-0.277 4.244,0.061C4.801,0.568 5.444,1.305 6.178,2.076L12.231,8.67L7.336,8.67L-0.009,0.537Z" style="fill:rgb(35,31,32);fill-rule:nonzero;"/>
        </g>
        <g transform="matrix(1,0,0,1,271.268,459)">
            <path d="M0,-13.976C-3.645,-13.976 -6.868,-11.588 -6.868,-7.099C-6.868,-3.195 -5.024,-0.032 -0.128,-0.032C3.782,-0.032 6.874,-2.308 6.874,-6.871C6.874,-11.513 4.211,-13.976 0,-13.976M-0.384,2.877C-7.645,2.877 -11.033,-1.132 -11.033,-6.802C-11.033,-13.134 -5.794,-16.853 0.302,-16.853C6.874,-16.853 11.083,-13.499 11.083,-7.173C11.083,-0.765 5.929,2.877 -0.384,2.877" style="fill:rgb(35,31,32);fill-rule:nonzero;"/>
        </g>
        <g transform="matrix(1,0,0,1,300.074,461.584)">
            <path d="M0,-19.275L4.075,-19.275L-3.821,-6.725L-3.821,0L-7.729,0L-7.729,-6.684L-15.501,-19.275L-11.164,-19.275L-5.614,-10.591L0,-19.275Z" style="fill:rgb(35,31,32);fill-rule:nonzero;"/>
        </g>
        <g transform="matrix(1,0,0,1,314.014,457.898)">
            <path d="M0,-11.894L-3.923,-2.789L3.892,-2.789L0,-11.894ZM6.673,3.686L4.907,-0.33L-5.007,-0.33L-6.769,3.686L-10.72,3.686L-1.984,-15.58L2.362,-15.58L11.007,3.686L6.673,3.686Z" style="fill:rgb(35,31,32);fill-rule:nonzero;"/>
        </g>
        <g transform="matrix(1,0,0,1,330.038,442.318)">
            <path d="M0,19.266L0,0L3.906,0L3.906,16.393L11.895,16.393L11.895,19.266L0,19.266Z" style="fill:rgb(35,31,32);fill-rule:nonzero;"/>
        </g>
        <g transform="matrix(1,0,0,1,388.179,459)">
            <path d="M0,-13.976C-3.651,-13.976 -6.873,-11.588 -6.873,-7.099C-6.873,-3.195 -5.023,-0.032 -0.127,-0.032C3.777,-0.032 6.868,-2.308 6.868,-6.871C6.868,-11.513 4.209,-13.976 0,-13.976M-0.39,2.877C-7.646,2.877 -11.037,-1.132 -11.037,-6.802C-11.037,-13.134 -5.797,-16.853 0.299,-16.853C6.868,-16.853 11.074,-13.499 11.074,-7.173C11.074,-0.765 5.926,2.877 -0.39,2.877" style="fill:rgb(35,31,32);fill-rule:nonzero;"/>
        </g>
        <g transform="matrix(1,0,0,1,409.767,451.687)">
            <path d="M0,0.543L2.172,0.543C5.477,0.543 7.369,-0.764 7.369,-3.263C7.369,-5.327 5.741,-6.796 2.52,-6.796L0,-6.796L0,0.543ZM0.029,3.37L0.029,9.897L-3.881,9.897L-3.881,-9.354L2.949,-9.354C8.359,-9.354 11.145,-7.071 11.145,-3.35C11.145,0.771 7.756,3.382 2.09,3.382L0.029,3.37Z" style="fill:rgb(35,31,32);fill-rule:nonzero;"/>
        </g>
        <g transform="matrix(1,0,0,1,426.964,442.326)">
            <path d="M0,19.258L0,0L12.626,0L12.626,2.631L3.908,2.631L3.908,8.076L12.109,8.076L12.109,10.631L3.908,10.631L3.908,16.553L12.626,16.553L12.626,19.258L0,19.258Z" style="fill:rgb(35,31,32);fill-rule:nonzero;"/>
        </g>
        <g transform="matrix(1,0,0,1,552.362,442.265)">
            <path d="M0,19.257L0,0L12.623,0L12.623,2.631L3.904,2.631L3.904,8.075L12.111,8.075L12.111,10.631L3.904,10.631L3.904,16.558L12.623,16.558L12.623,19.257L0,19.257Z" style="fill:rgb(35,31,32);fill-rule:nonzero;"/>
        </g>
        <g transform="matrix(1,0,0,1,463.216,461.585)">
            <path d="M0,-19.222L3.824,-19.222L3.824,0L-1.324,0L-12.1,-14.862L-12.106,-14.75L-12.106,0L-15.889,0L-15.889,-19.222L-10.733,-19.222L-0.002,-4.542L0,-19.222Z" style="fill:rgb(35,31,32);fill-rule:nonzero;"/>
        </g>
        <g transform="matrix(1,0,0,1,588.45,461.585)">
            <path d="M0,-19.222L3.822,-19.222L3.822,0L-1.318,0L-12.096,-14.862L-12.106,-14.75L-12.106,0L-15.885,0L-15.885,-19.222L-10.731,-19.222L0,-4.542L0,-19.222Z" style="fill:rgb(35,31,32);fill-rule:nonzero;"/>
        </g>
        <g transform="matrix(1,0,0,1,490.364,442.34)">
            <path d="M0,19.244L0,10.621L-10.594,10.621L-10.594,19.244L-14.504,19.244L-14.504,0L-10.594,0L-10.594,7.944L0,7.944L0,0L3.906,0L3.906,19.244L0,19.244Z" style="fill:rgb(35,31,32);fill-rule:nonzero;"/>
        </g>
        <g transform="matrix(1,0,0,1,536.47,442.186)">
            <path d="M0,19.691C-6.697,19.691 -11.465,16.377 -11.465,10.202C-11.465,4.453 -6.867,0 0.859,0C3.137,0 5.322,0.25 7.598,0.838L7.598,4.043C5.539,3.248 2.922,2.762 0.815,2.762C-3.603,2.762 -7.342,5.151 -7.342,9.864C-7.342,14.318 -4.164,16.75 0.477,16.75C1.805,16.75 3.137,16.601 4.17,16.308L4.17,10.044L8.074,10.044L8.074,18.437C5.588,19.252 2.963,19.691 0,19.691" style="fill:rgb(35,31,32);fill-rule:nonzero;"/>
        </g>
        <g transform="matrix(1,0,0,1,510.306,457.898)">
            <path d="M0,-11.894L-3.924,-2.789L3.895,-2.789L0,-11.894ZM6.674,3.686L4.91,-0.33L-5.008,-0.33L-6.77,3.686L-10.719,3.686L-1.984,-15.58L2.361,-15.58L11.012,3.686L6.674,3.686Z" style="fill:rgb(35,31,32);fill-rule:nonzero;"/>
        </g>
        <g transform="matrix(1,0,0,1,366.577,442.265)">
            <path d="M0,19.556C-7.242,19.486 -10.953,16.206 -10.953,9.965C-10.953,3.644 -5.717,0.163 0.697,0.014C2.708,-0.03 5.504,0.558 5.504,0.558L5.504,3.448C5.504,3.448 2.303,2.675 0.436,2.777C-3.725,3.009 -6.678,5.169 -6.678,9.671C-6.678,14.242 -4.037,16.633 0.316,16.633C2.551,16.633 5.758,15.743 5.758,15.743L5.758,18.749C5.758,18.749 3.268,19.586 0,19.556" style="fill:rgb(35,31,32);fill-rule:nonzero;"/>
        </g>
        <g transform="matrix(1,0,0,1,437.009,386.141)">
            <path d="M0,1.209C-0.254,1.936 -0.648,2.607 -1.095,3.264C-1.192,3.416 -1.385,3.629 -1.627,3.535C-1.865,3.423 -1.83,3.26 -1.785,3.138C-0.542,1.467 0.328,-0.816 -0.33,-2.956C-0.556,-3.808 -1.429,-4.353 -2.199,-4.701C-3.137,-5.072 -4.172,-5.201 -5.174,-5.003C-5.549,-4.899 -5.809,-4.881 -5.885,-5.047C-5.936,-5.156 -5.947,-5.166 -5.955,-5.283C-5.932,-5.555 -5.62,-5.568 -5.469,-5.629C-3.87,-6.003 -2.252,-5.607 -1.008,-4.775C-0.556,-4.441 -0.117,-4.014 0.102,-3.46C0.787,-2.014 0.543,-0.242 0,1.209M-2.138,2.035C-2.213,2.062 -2.326,2.107 -2.35,1.99C-2.404,1.519 -2.086,1.067 -1.859,0.686C-1.926,0.629 -2.045,0.648 -2.117,0.547C-2.318,0.243 -2.117,-0.143 -2.031,-0.443C-2.086,-0.55 -2.117,-0.654 -2.131,-0.774C-2.168,-1.125 -2,-1.488 -1.706,-1.686C-1.44,-2.07 -1.463,-2.566 -1.647,-2.969C-1.705,-3.136 -1.518,-3.127 -1.393,-3.038C-0.926,-2.707 -0.985,-1.521 -1.377,-0.975C-1.451,-0.861 -1.393,-0.766 -1.371,-0.682C-1.272,-0.457 -1.272,-0.493 -1.151,-0.221C-0.959,0.151 -1.199,0.414 -1.326,0.766C-1.529,1.248 -1.706,1.699 -2.138,2.035M-2.543,-2.453C-2.791,-2.377 -3.027,-2.543 -3.186,-2.68C-3.404,-2.738 -3.514,-2.566 -3.703,-2.579C-4.049,-2.641 -4.094,-3.053 -4.295,-3.294C-4.641,-3.754 -5.006,-3.114 -5.373,-3.325C-5.461,-3.416 -5.492,-3.582 -5.461,-3.706C-5.432,-3.895 -5.363,-4.127 -5.09,-4.193C-4.77,-4.254 -4.41,-4.267 -4.134,-4.079C-3.73,-3.842 -3.768,-3.236 -3.217,-3.259C-2.758,-3.408 -3.315,-3.916 -3.065,-4.029C-2.879,-4.122 -2.412,-3.631 -2.29,-3.294C-2.233,-3.184 -2.23,-3.122 -2.233,-3.021C-2.252,-2.666 -2.336,-2.527 -2.543,-2.453M-2.754,4.992C-3.19,5.473 -3.508,5.957 -3.768,6.504L-3.795,6.529C-4.182,6.319 -4.291,6.381 -4.518,6.748C-4.729,7.091 -4.746,7.226 -4.424,7.459L-4.449,7.533C-4.913,8.292 -5.336,8.875 -6.059,9.502C-6.623,9.979 -7.678,9.484 -7.771,8.705C-9.239,9.769 -10.99,8.914 -11.334,7.719C-12.143,8.639 -13.283,9.334 -15.145,7.881C-16.389,8.537 -18.495,9.1 -19.967,7.139L-19.988,7.139C-21.461,9.1 -23.566,8.537 -24.811,7.881C-26.674,9.334 -27.811,8.639 -28.62,7.719C-28.967,8.914 -30.717,9.769 -32.186,8.705C-32.281,9.484 -33.332,9.979 -33.898,9.502C-34.622,8.875 -35.041,8.292 -35.509,7.533L-35.529,7.459C-35.215,7.226 -35.23,7.091 -35.441,6.748C-35.663,6.381 -35.77,6.319 -36.16,6.529L-36.186,6.504C-36.454,5.957 -36.76,5.473 -37.203,4.992C-37.367,4.807 -37.69,4.666 -37.463,4.483C-37.326,4.359 -37.158,4.28 -36.971,4.207C-36.652,4.072 -36.275,3.953 -35.984,4.195C-35.603,4.701 -35.94,5.465 -35.752,5.619C-35.695,5.671 -35.607,5.696 -35.529,5.64C-35.209,5.351 -34.884,4.588 -34.391,4.804C-33.947,5.109 -33.598,5.934 -33.503,6.631C-33.464,6.999 -33.371,7.446 -33.674,7.696C-33.872,7.871 -34.223,7.656 -34.402,7.862C-34.508,8.143 -34.311,8.275 -34.158,8.516C-33.938,8.766 -33.666,9.116 -33.258,9.143C-32.688,9.064 -32.617,8.472 -32.382,8.088C-32.315,7.982 -32.315,8.037 -32.223,8.096C-31.697,8.475 -31.001,8.74 -30.348,8.654C-30.018,8.577 -29.646,8.406 -29.541,8.047C-29.457,7.814 -29.492,7.6 -29.545,7.389C-29.908,6.731 -30.229,7.784 -30.711,7.459C-31.215,7.074 -31.637,6.496 -31.834,5.838C-31.906,5.601 -32,5.25 -31.775,5.035C-31.507,4.804 -31.199,5.018 -30.891,5C-30.65,5.018 -30.732,4.804 -30.746,4.737C-30.961,4.397 -31.549,4.277 -31.58,3.785C-31.549,3.354 -31.181,3.186 -30.791,2.979C-30.172,2.7 -29.457,2.493 -28.758,2.625C-28.596,2.668 -28.428,2.738 -28.365,2.951C-28.334,3.138 -28.414,3.217 -28.457,3.326C-28.544,3.562 -28.785,3.82 -28.545,4.098C-28.457,4.232 -28.334,4.225 -28.178,4.136C-27.963,3.908 -27.691,3.623 -27.389,3.677C-26.986,3.721 -26.762,4.307 -26.666,4.759C-26.524,5.421 -26.465,6.166 -26.85,6.709C-27.262,7.065 -27.55,6.364 -27.937,6.658C-28.047,6.771 -27.945,7.113 -27.859,7.301C-27.631,7.696 -27.389,8.004 -26.937,8.096C-26.258,8.191 -25.857,8.033 -25.297,7.459C-25.078,7.213 -25.138,7.314 -24.872,7.003C-24.638,7.231 -24.284,7.548 -23.957,7.683C-23.202,8.055 -22.1,8.1 -21.528,7.594C-21.15,7.275 -20.94,6.68 -21.066,6.529C-21.639,5.946 -21.701,6.867 -22.1,7.012C-22.609,7.191 -22.842,7.065 -23.089,6.811C-23.69,5.998 -23.742,4.815 -23.391,3.834C-23.338,3.729 -23.338,3.729 -23.271,3.629C-23.08,3.361 -22.852,3.281 -22.585,3.326C-22.213,3.397 -21.969,3.686 -21.811,3.997C-21.743,4.124 -21.566,4.119 -21.433,4.072C-21.291,4.027 -21.169,3.86 -21.246,3.725C-21.468,3.416 -21.83,3.189 -22.025,2.869C-22.154,2.65 -22.213,2.314 -22.094,2.056C-22.01,1.834 -21.809,1.654 -21.602,1.498C-21.156,1.217 -20.572,1.067 -19.988,1.067L-19.963,1.067C-19.383,1.067 -18.801,1.217 -18.357,1.498C-18.151,1.654 -17.943,1.834 -17.863,2.056C-17.742,2.314 -17.801,2.65 -17.932,2.869C-18.131,3.189 -18.484,3.416 -18.711,3.725C-18.788,3.86 -18.662,4.027 -18.524,4.072C-18.385,4.119 -18.218,4.124 -18.148,3.997C-17.988,3.686 -17.742,3.397 -17.372,3.326C-17.105,3.281 -16.875,3.361 -16.679,3.629C-16.619,3.729 -16.619,3.729 -16.57,3.834C-16.215,4.815 -16.27,5.998 -16.867,6.811C-17.113,7.065 -17.348,7.191 -17.858,7.012C-18.252,6.867 -18.315,5.946 -18.885,6.529C-19.017,6.68 -18.811,7.275 -18.429,7.594C-17.858,8.1 -16.758,8.055 -15.996,7.683C-15.67,7.548 -15.324,7.231 -15.084,7.003C-14.82,7.314 -14.877,7.213 -14.656,7.459C-14.102,8.033 -13.697,8.191 -13.023,8.096C-12.568,8.004 -12.324,7.696 -12.099,7.301C-12.014,7.113 -11.905,6.771 -12.02,6.658C-12.4,6.364 -12.695,7.065 -13.105,6.709C-13.492,6.166 -13.428,5.421 -13.287,4.759C-13.191,4.307 -12.965,3.721 -12.568,3.677C-12.26,3.623 -11.998,3.908 -11.773,4.136C-11.625,4.225 -11.502,4.232 -11.408,4.098C-11.169,3.82 -11.408,3.562 -11.502,3.326C-11.543,3.217 -11.625,3.138 -11.594,2.951C-11.529,2.738 -11.359,2.668 -11.193,2.625C-10.503,2.493 -9.783,2.7 -9.164,2.979C-8.777,3.186 -8.407,3.354 -8.373,3.785C-8.407,4.277 -8.992,4.397 -9.215,4.737C-9.223,4.804 -9.305,5.018 -9.065,5C-8.757,5.018 -8.451,4.804 -8.186,5.035C-7.953,5.25 -8.051,5.601 -8.127,5.838C-8.318,6.496 -8.741,7.074 -9.244,7.459C-9.726,7.784 -10.051,6.731 -10.407,7.389C-10.459,7.6 -10.503,7.814 -10.418,8.047C-10.31,8.406 -9.941,8.577 -9.609,8.654C-8.955,8.74 -8.258,8.475 -7.734,8.096C-7.641,8.037 -7.641,7.982 -7.574,8.088C-7.338,8.472 -7.271,9.064 -6.702,9.143C-6.291,9.116 -6.018,8.766 -5.797,8.516C-5.646,8.275 -5.449,8.143 -5.555,7.862C-5.736,7.656 -6.078,7.871 -6.281,7.696C-6.578,7.446 -6.49,6.999 -6.455,6.631C-6.355,5.934 -6.01,5.109 -5.565,4.804C-5.072,4.588 -4.754,5.351 -4.427,5.64C-4.343,5.696 -4.261,5.671 -4.202,5.619C-4.02,5.465 -4.355,4.701 -3.971,4.195C-3.682,3.953 -3.305,4.072 -2.98,4.207C-2.795,4.28 -2.627,4.359 -2.496,4.483C-2.268,4.666 -2.59,4.807 -2.754,4.992M-6.202,10.997C-6.301,11.023 -6.537,10.997 -6.686,10.971C-7.395,10.809 -12.496,9.792 -19.963,9.787L-19.988,9.787C-27.459,9.792 -32.566,10.809 -33.273,10.971C-33.42,10.997 -33.652,11.023 -33.748,10.997C-33.842,10.962 -33.953,10.809 -33.885,10.677C-33.845,10.562 -33.734,10.497 -33.639,10.461C-30.961,9.883 -25.367,9.051 -19.988,9.046L-19.963,9.046C-14.592,9.051 -8.992,9.883 -6.322,10.461C-6.219,10.497 -6.109,10.562 -6.072,10.677C-6.004,10.809 -6.113,10.962 -6.202,10.997M-6.639,13.525C-6.702,13.522 -6.672,13.369 -6.678,13.272C-6.719,13.113 -6.963,13.043 -6.978,13.005C-7.068,12.951 -7.061,12.666 -6.947,12.588C-6.887,12.54 -6.775,12.531 -6.709,12.57C-6.537,12.658 -6.379,12.859 -6.391,13.105C-6.436,13.299 -6.493,13.529 -6.639,13.525M-7.494,14.025C-7.475,14.068 -7.449,14.096 -7.408,14.144C-7.359,14.224 -7.195,14.346 -7.35,14.443C-7.414,14.451 -7.491,14.443 -7.561,14.377C-8.051,13.902 -8.137,13.158 -7.922,12.522C-7.798,12.236 -7.518,11.752 -7.166,11.768C-6.925,11.773 -7.068,12.101 -7.199,12.229C-7.582,12.687 -7.815,13.443 -7.494,14.025M-10.498,11.676C-10.459,11.386 -10.191,11.18 -9.902,11.22L-9.432,11.273C-9.141,11.314 -8.93,11.575 -8.964,11.869C-9.006,12.163 -9.269,12.369 -9.56,12.334L-10.033,12.272C-10.324,12.236 -10.533,11.975 -10.498,11.676M-10.164,13.802L-9.688,13.864C-9.4,13.898 -9.191,14.162 -9.226,14.451C-9.268,14.75 -9.527,14.955 -9.818,14.92L-10.297,14.859C-10.588,14.824 -10.797,14.561 -10.756,14.267C-10.723,13.973 -10.453,13.768 -10.164,13.802M-13.865,12.391L-13.053,11.698C-12.91,11.575 -12.695,11.598 -12.576,11.736L-11.893,12.553C-11.768,12.693 -11.787,12.912 -11.932,13.031L-12.744,13.715C-12.887,13.838 -13.1,13.814 -13.221,13.675L-13.906,12.859C-14.027,12.72 -14.006,12.5 -13.865,12.391M-16.679,11.29C-16.679,10.997 -16.447,10.76 -16.151,10.76L-15.67,10.76C-15.381,10.76 -15.14,10.997 -15.14,11.29C-15.14,11.579 -15.381,11.825 -15.67,11.825L-16.151,11.825C-16.447,11.825 -16.679,11.579 -16.679,11.29M-16.211,13.307L-15.728,13.307C-15.434,13.307 -15.201,13.547 -15.201,13.843C-15.201,14.137 -15.434,14.371 -15.728,14.371L-16.211,14.371C-16.502,14.371 -16.742,14.137 -16.742,13.843C-16.742,13.547 -16.502,13.307 -16.211,13.307M-22.001,13.402L-22.001,10.75C-22.001,10.518 -21.818,10.326 -21.584,10.326L-18.117,10.326C-17.881,10.326 -17.695,10.518 -17.695,10.75L-17.695,13.402C-17.695,13.64 -17.881,13.824 -18.117,13.824L-21.584,13.824C-21.818,13.824 -22.001,13.64 -22.001,13.402M-23.217,13.843C-23.217,14.137 -23.451,14.371 -23.744,14.371L-24.228,14.371C-24.518,14.371 -24.758,14.137 -24.758,13.843C-24.758,13.547 -24.518,13.307 -24.228,13.307L-23.744,13.307C-23.451,13.307 -23.217,13.547 -23.217,13.843M-23.803,11.825L-24.284,11.825C-24.578,11.825 -24.815,11.579 -24.815,11.29C-24.815,10.997 -24.578,10.76 -24.284,10.76L-23.803,10.76C-23.51,10.76 -23.275,10.997 -23.275,11.29C-23.275,11.579 -23.51,11.825 -23.803,11.825M-28.068,12.553L-27.379,11.736C-27.256,11.598 -27.041,11.575 -26.902,11.698L-26.092,12.391C-25.947,12.5 -25.932,12.72 -26.049,12.859L-26.736,13.675C-26.853,13.814 -27.068,13.838 -27.213,13.715L-28.025,13.031C-28.168,12.912 -28.186,12.693 -28.068,12.553M-29.199,14.267C-29.161,14.561 -29.369,14.824 -29.659,14.859L-30.135,14.92C-30.424,14.955 -30.693,14.75 -30.727,14.451C-30.768,14.162 -30.557,13.898 -30.265,13.864L-29.791,13.802C-29.502,13.768 -29.238,13.973 -29.199,14.267M-29.918,12.272L-30.397,12.334C-30.686,12.369 -30.952,12.163 -30.99,11.869C-31.026,11.575 -30.818,11.314 -30.529,11.273L-30.051,11.22C-29.76,11.18 -29.492,11.386 -29.461,11.676C-29.422,11.975 -29.629,12.236 -29.918,12.272M-7.549,16.717C-11.695,16.295 -15.697,16.072 -19.963,16.061L-19.988,16.061C-24.264,16.072 -28.256,16.295 -32.407,16.717C-32.719,16.738 -32.926,16.66 -32.938,16.522C-32.956,16.342 -32.898,16.244 -32.764,16.208C-31.627,15.998 -30.36,15.876 -29.205,15.792C-26.184,15.49 -23.089,15.306 -19.988,15.306L-19.963,15.306C-16.867,15.306 -13.77,15.49 -10.746,15.792C-9.592,15.876 -8.336,15.998 -7.195,16.208C-7.061,16.244 -6.996,16.342 -7.018,16.522C-7.031,16.66 -7.24,16.738 -7.549,16.717M-19.963,17.439L-19.988,17.439C-20.602,17.432 -28.107,17.322 -28.993,17.077C-27.695,16.797 -22.041,16.726 -19.988,16.721L-19.963,16.721C-17.916,16.726 -12.26,16.797 -10.962,17.077C-11.849,17.322 -19.353,17.432 -19.963,17.439M-32.758,12.229C-32.886,12.101 -33.027,11.773 -32.791,11.768C-32.434,11.752 -32.157,12.236 -32.039,12.522C-31.82,13.158 -31.906,13.902 -32.396,14.377C-32.465,14.443 -32.545,14.451 -32.603,14.443C-32.764,14.346 -32.597,14.224 -32.549,14.144C-32.504,14.096 -32.482,14.068 -32.462,14.025C-32.141,13.443 -32.371,12.687 -32.758,12.229M-33.281,13.272C-33.289,13.369 -33.258,13.522 -33.317,13.525C-33.459,13.529 -33.517,13.299 -33.567,13.105C-33.578,12.859 -33.42,12.658 -33.246,12.57C-33.174,12.531 -33.07,12.54 -33.006,12.588C-32.898,12.666 -32.886,12.951 -32.978,13.005C-32.994,13.043 -33.236,13.113 -33.281,13.272M-37.721,-3.021C-37.732,-3.122 -37.719,-3.184 -37.668,-3.294C-37.545,-3.631 -37.08,-4.122 -36.896,-4.029C-36.643,-3.916 -37.194,-3.408 -36.745,-3.259C-36.186,-3.236 -36.226,-3.842 -35.822,-4.079C-35.543,-4.267 -35.188,-4.254 -34.869,-4.193C-34.592,-4.127 -34.524,-3.895 -34.496,-3.706C-34.463,-3.582 -34.496,-3.416 -34.582,-3.325C-34.949,-3.114 -35.318,-3.754 -35.66,-3.294C-35.861,-3.053 -35.91,-2.641 -36.252,-2.579C-36.445,-2.566 -36.55,-2.738 -36.77,-2.68C-36.93,-2.543 -37.162,-2.377 -37.414,-2.453C-37.619,-2.527 -37.702,-2.666 -37.721,-3.021M-37.607,1.99C-37.629,2.107 -37.748,2.062 -37.816,2.035C-38.248,1.699 -38.426,1.248 -38.631,0.766C-38.755,0.414 -38.991,0.151 -38.807,-0.221C-38.686,-0.493 -38.686,-0.457 -38.584,-0.682C-38.561,-0.766 -38.502,-0.861 -38.58,-0.975C-38.971,-1.521 -39.031,-2.707 -38.561,-3.038C-38.44,-3.127 -38.248,-3.136 -38.315,-2.969C-38.487,-2.566 -38.512,-2.07 -38.248,-1.686C-37.957,-1.488 -37.786,-1.125 -37.832,-0.774C-37.84,-0.654 -37.87,-0.55 -37.922,-0.443C-37.835,-0.143 -37.637,0.243 -37.84,0.547C-37.906,0.648 -38.036,0.629 -38.096,0.686C-37.87,1.067 -37.549,1.519 -37.607,1.99M-38.33,3.535C-38.566,3.629 -38.77,3.416 -38.857,3.264C-39.303,2.607 -39.703,1.936 -39.951,1.209C-40.499,-0.242 -40.742,-2.014 -40.059,-3.46C-39.842,-4.014 -39.398,-4.441 -38.944,-4.775C-37.699,-5.607 -36.088,-6.003 -34.489,-5.629C-34.332,-5.568 -34.024,-5.555 -34.003,-5.283C-34.008,-5.166 -34.019,-5.156 -34.073,-5.047C-34.152,-4.881 -34.407,-4.899 -34.783,-5.003C-35.788,-5.201 -36.818,-5.072 -37.76,-4.701C-38.531,-4.353 -39.398,-3.808 -39.633,-2.956C-40.285,-0.816 -39.418,1.467 -38.172,3.138C-38.129,3.26 -38.096,3.423 -38.33,3.535M-33.666,-0.76C-33.718,-0.493 -33.811,-0.154 -33.652,0.063C-33.555,0.301 -33.006,0.307 -33.246,0.66C-33.381,1.067 -32.645,1.383 -32.978,1.516C-33.228,1.567 -33.447,1.559 -33.832,1.678C-34.438,1.879 -34.879,2.207 -35.389,2.523C-35.543,2.611 -35.678,2.781 -35.759,2.939C-36.006,2.817 -36.384,2.742 -36.67,2.764C-36.68,2.551 -36.621,2.475 -36.66,2.287C-36.682,1.848 -36.835,1.458 -36.996,1.047C-36.868,0.609 -36.814,0.196 -36.971,-0.256C-37.094,-0.58 -36.849,-0.996 -36.996,-1.26C-37.041,-1.339 -36.996,-1.374 -36.996,-1.374C-36.835,-1.497 -36.621,-1.641 -36.425,-1.776C-35.898,-1.677 -35.529,-1.975 -35.199,-2.32C-34.863,-2.205 -34.519,-2.496 -34.262,-2.342C-34.139,-2.264 -33.984,-2.078 -34.113,-1.926C-34.232,-1.686 -34.204,-1.281 -34.03,-1.072C-33.927,-0.935 -33.767,-0.853 -33.666,-0.76M-32.429,3.934C-32.382,4.061 -32.369,4.211 -32.293,4.334C-32.629,4.617 -32.818,5.14 -32.719,5.663C-32.663,6.131 -32.465,6.547 -32.298,6.965C-32.429,6.99 -32.518,7.012 -32.645,6.985C-32.549,6.152 -33.273,4.246 -34.304,3.939C-34.541,3.904 -34.813,4.005 -35.033,4.105C-35.149,3.932 -35.217,3.825 -35.295,3.725C-35.295,3.686 -35.258,3.686 -35.253,3.668C-34.622,2.951 -33.898,2.479 -32.719,2.278C-32.719,2.278 -32.088,2.125 -31.789,2.238C-31.547,2.395 -31.906,2.616 -32.088,2.777C-32.388,3.111 -32.492,3.453 -32.429,3.934M-30.043,-3.96C-29.975,-3.741 -30.353,-3.696 -30.225,-3.447C-30.121,-3.307 -30.094,-3.117 -30.135,-2.951C-30.178,-2.789 -30.344,-2.768 -30.441,-2.877C-30.531,-3 -30.676,-3.149 -30.855,-3.172C-30.969,-3.172 -31.045,-3.122 -31.088,-3.043C-31.174,-2.798 -30.635,-2.32 -30.475,-1.926C-30.335,-1.619 -30.043,-1.26 -30.348,-0.958C-30.324,-0.623 -29.996,-0.26 -30.252,0.016C-30.52,0.104 -31.001,-0.857 -30.985,-1.125C-30.931,-1.774 -31.518,-2.084 -31.63,-2.68C-31.713,-3.215 -31.775,-3.691 -31.555,-4.166C-31.5,-4.275 -31.426,-4.311 -31.324,-4.323C-31.158,-4.35 -31.107,-4.166 -30.947,-4.227C-30.717,-4.521 -31.031,-4.838 -30.869,-5.186C-30.779,-5.542 -30.482,-5.889 -30.135,-5.985C-29.975,-6.003 -29.869,-5.885 -29.874,-5.801C-29.89,-5.482 -30.246,-5.402 -30.311,-5.107C-30.441,-4.709 -30.246,-4.283 -30.043,-3.96M-33.078,-3.811C-32.895,-5.283 -32.193,-6.918 -30.65,-7.391C-30.575,-7.423 -30.457,-7.457 -30.365,-7.488C-29.09,-7.849 -27.739,-7.475 -26.557,-6.984C-25.581,-6.648 -24.523,-6.362 -23.484,-6.174C-23.344,-6.15 -23.181,-6.117 -23.103,-5.968C-23.061,-5.867 -23.043,-5.683 -23.124,-5.596C-23.299,-5.357 -23.434,-5.441 -23.852,-5.542C-25.332,-5.911 -26.808,-6.37 -28.227,-6.863C-29.107,-7.16 -30.973,-6.944 -31.715,-5.867C-31.901,-5.662 -32.039,-5.389 -32.157,-5.126C-32.574,-3.99 -32.719,-2.505 -32.211,-1.334C-31.83,-0.33 -31.299,0.504 -30.598,1.33C-30.531,1.458 -30.515,1.594 -30.635,1.699C-30.732,1.762 -30.787,1.831 -30.947,1.778C-31.292,1.604 -31.576,1.199 -31.792,0.871C-32.57,-0.256 -33.07,-1.677 -33.109,-3C-33.111,-3.196 -33.096,-3.768 -33.078,-3.811M-29.405,-4.949C-29.451,-5.186 -29.377,-5.327 -29.348,-5.398C-29.213,-5.717 -28.871,-6.174 -28.58,-6.117C-28.371,-6.024 -28.59,-5.74 -28.4,-5.617C-28.131,-5.629 -27.924,-5.844 -27.631,-5.757C-27.367,-5.617 -27.068,-5.587 -26.774,-5.512C-26.69,-5.465 -26.627,-5.35 -26.674,-5.258C-26.796,-5.018 -27.066,-4.946 -27.318,-4.938C-27.615,-4.925 -27.703,-5.122 -27.919,-5.107C-28.502,-4.853 -28.457,-4.025 -29.051,-3.856C-29.199,-3.846 -29.344,-3.895 -29.379,-4.051C-29.537,-4.341 -29.27,-4.67 -29.405,-4.949M-23.014,2.475C-23.158,2.607 -23.353,2.654 -23.5,2.76C-24.44,3.326 -24.561,4.698 -24.416,5.754C-24.377,5.943 -24.357,6.184 -24.271,6.381C-24.363,6.422 -24.502,6.329 -24.584,6.258C-24.697,6.131 -24.896,5.934 -25.108,5.979C-25.43,6.047 -25.483,6.468 -25.77,6.577C-25.788,6.568 -25.748,4.334 -26.315,3.51C-26.573,3.164 -27.02,2.791 -27.541,2.817C-27.721,2.395 -27.988,1.979 -28.457,1.848C-28.844,1.721 -29.585,1.848 -29.664,1.668C-29.768,1.328 -29.422,1.304 -29.246,1.173C-28.477,0.734 -27.895,0.441 -26.544,0.533C-25.894,0.582 -25.346,0.74 -24.717,0.822C-24.061,0.932 -23.69,0.993 -22.9,1.064C-22.743,1.072 -22.789,1.086 -22.572,1.116C-22.869,1.541 -23.119,1.914 -23.014,2.475M-22.631,-0.059C-22.588,0.109 -22.588,0.109 -22.566,0.243C-23.369,0.217 -24.167,0.082 -24.926,-0.012C-26.087,-0.199 -27.375,-0.58 -28.527,-0.045C-28.757,0.03 -28.988,0.144 -29.213,0.231C-29.262,0.063 -29.262,0.063 -29.275,-0.012C-29.275,-0.012 -29.405,-0.557 -29.436,-0.844C-29.297,-1.149 -29.405,-1.57 -29.53,-1.82C-29.344,-2.168 -29.178,-2.519 -29.168,-2.951C-29.059,-3.122 -28.821,-3.053 -28.655,-3.131C-28.297,-3.277 -28.022,-3.592 -27.859,-3.934C-27.573,-4.057 -27.287,-3.984 -26.912,-4.079C-26.603,-4.166 -26.511,-4.201 -26.357,-4.323C-26.187,-4.428 -26.027,-4.906 -25.656,-4.775C-25.108,-4.696 -24.432,-4.613 -23.824,-4.688C-23.706,-4.709 -23.613,-4.727 -23.442,-4.688C-23.5,-4.245 -23.451,-3.818 -23.316,-3.434C-23.48,-3.053 -23.426,-2.627 -23.207,-2.289C-23.387,-1.632 -23.58,-0.694 -22.941,-0.208C-22.842,-0.168 -22.725,-0.107 -22.631,-0.059M-21.966,-5.881C-21.83,-6.039 -21.786,-6.055 -21.668,-6.1C-21.551,-6.117 -21.468,-6.055 -21.42,-5.968C-21.335,-5.529 -21.676,-5.148 -21.869,-4.736C-21.911,-4.622 -21.857,-4.521 -21.734,-4.533C-21.602,-4.547 -21.461,-4.666 -21.335,-4.568C-21.216,-4.49 -21.228,-4.446 -21.273,-4.367C-21.433,-3.99 -21.027,-3.582 -21.329,-3.285C-21.551,-2.926 -21.786,-2.201 -21.772,-2.114C-21.765,-2.03 -21.786,-1.947 -21.646,-1.891C-21.515,-1.891 -21.357,-2.025 -21.234,-1.82C-21.099,-1.413 -21.077,-0.914 -21.145,-0.457C-21.199,-0.225 -21.228,-0.146 -21.357,-0.099C-21.566,-0.089 -21.551,-0.269 -21.584,-0.383C-21.633,-0.629 -21.551,-0.953 -21.798,-1.11C-21.998,-1.119 -22.138,-0.853 -22.338,-1.049C-22.54,-1.334 -22.387,-1.975 -22.342,-2.078C-22.273,-2.342 -22.049,-2.505 -22.158,-2.759C-22.3,-2.912 -22.291,-3.152 -22.291,-3.325C-22.311,-3.531 -22.056,-3.582 -22.19,-3.789C-22.369,-3.856 -22.479,-4.389 -22.479,-4.463C-22.487,-4.853 -22.138,-5.587 -21.966,-5.881M-22.1,-9.646C-21.904,-10.193 -21.594,-10.495 -21.066,-10.736C-20.903,-10.811 -20.787,-10.785 -20.787,-10.785L-20.787,-9.334C-20.787,-9.334 -21.604,-9.229 -22.074,-9.194C-22.199,-9.317 -22.141,-9.491 -22.1,-9.646M-19.984,-6.612L-19.986,-6.612L-19.98,-6.612L-19.984,-6.612L-19.967,-6.612L-19.973,-6.612L-19.967,-6.612C-19.335,-6.6 -19.496,-5.117 -19.496,-3.294C-19.496,-1.465 -19.301,0.016 -19.967,0.03L-19.984,0.03C-20.655,0.016 -20.461,-1.465 -20.461,-3.294C-20.461,-5.117 -20.617,-6.6 -19.984,-6.612M-19.988,-7.922L-19.963,-7.922C-19.353,-7.922 -18.734,-7.888 -18.119,-7.84C-17.973,-7.822 -17.853,-7.699 -17.885,-7.533C-17.916,-7.418 -18.01,-7.34 -18.111,-7.332C-18.738,-7.379 -19.34,-7.346 -19.963,-7.346L-19.988,-7.346C-20.611,-7.346 -21.216,-7.379 -21.84,-7.332C-21.949,-7.34 -22.041,-7.418 -22.07,-7.533C-22.103,-7.699 -21.986,-7.822 -21.836,-7.84C-21.225,-7.888 -20.6,-7.922 -19.988,-7.922M-19.168,-10.785C-19.168,-10.785 -19.052,-10.811 -18.885,-10.736C-18.365,-10.495 -18.047,-10.193 -17.858,-9.646C-17.809,-9.491 -17.758,-9.317 -17.881,-9.194C-18.353,-9.229 -19.168,-9.334 -19.168,-9.334L-19.168,-10.785ZM-17.665,-3.325C-17.665,-3.152 -17.656,-2.912 -17.797,-2.759C-17.908,-2.505 -17.679,-2.342 -17.611,-2.078C-17.572,-1.975 -17.416,-1.334 -17.617,-1.049C-17.82,-0.853 -17.956,-1.119 -18.156,-1.11C-18.402,-0.953 -18.322,-0.629 -18.375,-0.383C-18.402,-0.269 -18.386,-0.089 -18.596,-0.099C-18.727,-0.146 -18.753,-0.225 -18.811,-0.457C-18.877,-0.914 -18.859,-1.413 -18.721,-1.82C-18.596,-2.025 -18.44,-1.891 -18.311,-1.891C-18.168,-1.947 -18.192,-2.03 -18.19,-2.114C-18.168,-2.201 -18.402,-2.926 -18.625,-3.285C-18.933,-3.582 -18.524,-3.99 -18.679,-4.367C-18.727,-4.446 -18.738,-4.49 -18.617,-4.568C-18.494,-4.666 -18.357,-4.547 -18.225,-4.533C-18.1,-4.521 -18.043,-4.622 -18.086,-4.736C-18.279,-5.148 -18.617,-5.529 -18.533,-5.968C-18.484,-6.055 -18.402,-6.117 -18.29,-6.1C-18.168,-6.055 -18.131,-6.039 -17.992,-5.881C-17.82,-5.587 -17.47,-4.853 -17.482,-4.463C-17.482,-4.389 -17.59,-3.856 -17.768,-3.789C-17.898,-3.582 -17.652,-3.531 -17.665,-3.325M-17.324,-0.059C-17.232,-0.107 -17.117,-0.168 -17.014,-0.208C-16.375,-0.694 -16.57,-1.632 -16.75,-2.289C-16.529,-2.627 -16.48,-3.053 -16.643,-3.434C-16.502,-3.818 -16.456,-4.245 -16.513,-4.688C-16.345,-4.727 -16.246,-4.709 -16.133,-4.688C-15.523,-4.613 -14.846,-4.696 -14.297,-4.775C-13.926,-4.906 -13.77,-4.428 -13.602,-4.323C-13.447,-4.201 -13.348,-4.166 -13.041,-4.079C-12.667,-3.984 -12.387,-4.057 -12.099,-3.934C-11.936,-3.592 -11.662,-3.277 -11.301,-3.131C-11.139,-3.053 -10.897,-3.122 -10.787,-2.951C-10.783,-2.519 -10.613,-2.168 -10.424,-1.82C-10.555,-1.57 -10.66,-1.149 -10.52,-0.844C-10.555,-0.557 -10.678,-0.012 -10.678,-0.012C-10.691,0.063 -10.691,0.063 -10.741,0.231C-10.965,0.144 -11.198,0.03 -11.432,-0.045C-12.58,-0.58 -13.869,-0.199 -15.037,-0.012C-15.79,0.082 -16.586,0.217 -17.389,0.243C-17.367,0.109 -17.367,0.109 -17.324,-0.059M-11.375,-6.117C-11.085,-6.174 -10.741,-5.717 -10.607,-5.398C-10.578,-5.327 -10.51,-5.186 -10.555,-4.949C-10.686,-4.67 -10.424,-4.341 -10.578,-4.051C-10.613,-3.895 -10.756,-3.846 -10.904,-3.856C-11.502,-4.025 -11.455,-4.853 -12.037,-5.107C-12.25,-5.122 -12.338,-4.925 -12.637,-4.938C-12.895,-4.946 -13.158,-5.018 -13.283,-5.258C-13.332,-5.35 -13.264,-5.465 -13.184,-5.512C-12.89,-5.587 -12.588,-5.617 -12.324,-5.757C-12.031,-5.844 -11.824,-5.629 -11.555,-5.617C-11.369,-5.74 -11.585,-6.024 -11.375,-6.117M-16.456,2.76C-16.605,2.654 -16.797,2.607 -16.942,2.475C-16.838,1.914 -17.082,1.541 -17.381,1.116C-17.17,1.086 -17.213,1.072 -17.061,1.064C-16.27,0.993 -15.893,0.932 -15.237,0.822C-14.605,0.74 -14.063,0.582 -13.41,0.533C-12.061,0.441 -11.476,0.734 -10.712,1.173C-10.53,1.304 -10.19,1.328 -10.291,1.668C-10.371,1.848 -11.113,1.721 -11.502,1.848C-11.965,1.979 -12.239,2.395 -12.416,2.817C-12.934,2.791 -13.387,3.164 -13.642,3.51C-14.208,4.334 -14.167,6.568 -14.184,6.577C-14.475,6.468 -14.526,6.047 -14.846,5.979C-15.061,5.934 -15.262,6.131 -15.369,6.258C-15.455,6.329 -15.592,6.422 -15.69,6.381C-15.597,6.184 -15.578,5.943 -15.543,5.754C-15.397,4.698 -15.516,3.326 -16.456,2.76M-9.486,-1.926C-9.322,-2.32 -8.784,-2.798 -8.869,-3.043C-8.914,-3.122 -8.99,-3.172 -9.1,-3.172C-9.284,-3.149 -9.428,-3 -9.512,-2.877C-9.613,-2.768 -9.779,-2.789 -9.823,-2.951C-9.867,-3.117 -9.832,-3.307 -9.73,-3.447C-9.6,-3.696 -9.978,-3.741 -9.914,-3.96C-9.711,-4.283 -9.512,-4.709 -9.647,-5.107C-9.711,-5.402 -10.065,-5.482 -10.082,-5.801C-10.089,-5.885 -9.978,-6.003 -9.823,-5.985C-9.476,-5.889 -9.174,-5.542 -9.086,-5.186C-8.93,-4.838 -9.239,-4.521 -9.006,-4.227C-8.85,-4.166 -8.798,-4.35 -8.633,-4.323C-8.531,-4.311 -8.455,-4.275 -8.404,-4.166C-8.186,-3.691 -8.244,-3.215 -8.33,-2.68C-8.438,-2.084 -9.027,-1.774 -8.973,-1.125C-8.951,-0.857 -9.438,0.104 -9.709,0.016C-9.964,-0.26 -9.637,-0.623 -9.609,-0.958C-9.914,-1.26 -9.627,-1.619 -9.486,-1.926M-16.853,-5.968C-16.776,-6.117 -16.611,-6.15 -16.475,-6.174C-15.432,-6.362 -14.376,-6.648 -13.4,-6.984C-12.217,-7.475 -10.871,-7.849 -9.589,-7.488C-9.503,-7.457 -9.38,-7.423 -9.305,-7.391C-7.771,-6.918 -7.064,-5.283 -6.877,-3.811C-6.859,-3.768 -6.846,-3.196 -6.85,-3C-6.895,-1.677 -7.387,-0.256 -8.162,0.871C-8.373,1.199 -8.66,1.604 -9.006,1.778C-9.164,1.831 -9.223,1.762 -9.322,1.699C-9.438,1.594 -9.428,1.458 -9.363,1.33C-8.652,0.504 -8.13,-0.33 -7.744,-1.334C-7.24,-2.505 -7.383,-3.99 -7.798,-5.126C-7.922,-5.389 -8.061,-5.662 -8.24,-5.867C-8.986,-6.944 -10.85,-7.16 -11.728,-6.863C-13.148,-6.37 -14.623,-5.911 -16.108,-5.542C-16.516,-5.441 -16.656,-5.357 -16.836,-5.596C-16.916,-5.683 -16.895,-5.867 -16.853,-5.968M-7.315,6.985C-7.439,7.012 -7.534,6.99 -7.658,6.965C-7.491,6.547 -7.291,6.131 -7.24,5.663C-7.135,5.14 -7.328,4.617 -7.662,4.334C-7.588,4.211 -7.574,4.061 -7.534,3.934C-7.459,3.453 -7.568,3.111 -7.869,2.777C-8.051,2.616 -8.416,2.395 -8.164,2.238C-7.869,2.125 -7.236,2.278 -7.236,2.278C-6.059,2.479 -5.336,2.951 -4.702,3.668C-4.699,3.686 -4.661,3.686 -4.661,3.725C-4.742,3.825 -4.807,3.932 -4.922,4.105C-5.147,4.005 -5.411,3.904 -5.654,3.939C-6.686,4.246 -7.408,6.152 -7.315,6.985M-6.301,0.063C-6.145,-0.154 -6.236,-0.493 -6.291,-0.76C-6.189,-0.853 -6.031,-0.935 -5.925,-1.072C-5.754,-1.281 -5.723,-1.686 -5.843,-1.926C-5.971,-2.078 -5.816,-2.264 -5.693,-2.342C-5.437,-2.496 -5.098,-2.205 -4.758,-2.32C-4.427,-1.975 -4.059,-1.677 -3.531,-1.776C-3.334,-1.641 -3.12,-1.497 -2.959,-1.374C-2.959,-1.374 -2.914,-1.339 -2.959,-1.26C-3.109,-0.996 -2.867,-0.58 -2.986,-0.256C-3.147,0.196 -3.09,0.609 -2.959,1.047C-3.117,1.458 -3.272,1.848 -3.297,2.287C-3.334,2.475 -3.274,2.551 -3.288,2.764C-3.572,2.742 -3.951,2.817 -4.199,2.939C-4.274,2.781 -4.41,2.611 -4.566,2.523C-5.076,2.207 -5.521,1.879 -6.123,1.678C-6.509,1.559 -6.727,1.567 -6.978,1.516C-7.311,1.383 -6.575,1.067 -6.709,0.66C-6.947,0.307 -6.404,0.301 -6.301,0.063M1.609,-0.961C1.814,-1.171 1.947,-1.461 1.947,-1.776C1.947,-2.18 1.738,-2.527 1.431,-2.732C1.543,-2.918 1.611,-3.131 1.611,-3.356C1.611,-3.912 1.221,-4.373 0.697,-4.482L0.715,-4.521C0.728,-4.596 0.735,-4.674 0.735,-4.754C0.735,-5.389 0.224,-5.902 -0.406,-5.902C-0.5,-5.902 -0.59,-5.889 -0.672,-5.871L-0.674,-5.889C-0.822,-6.349 -1.258,-6.684 -1.768,-6.684C-1.942,-6.684 -2.107,-6.643 -2.258,-6.566L-2.268,-6.586C-2.473,-6.893 -2.822,-7.089 -3.22,-7.089C-3.459,-7.089 -3.678,-7.02 -3.861,-6.898L-3.881,-6.909C-4.062,-7.037 -4.285,-7.107 -4.524,-7.107C-4.897,-7.107 -5.225,-6.926 -5.437,-6.656C-5.637,-6.822 -5.897,-6.926 -6.18,-6.926C-6.301,-6.926 -6.425,-6.906 -6.536,-6.875C-6.623,-7.418 -7.096,-7.834 -7.666,-7.834C-7.782,-7.834 -7.898,-7.816 -8,-7.786L-8.014,-7.795C-8.014,-8.428 -8.525,-8.939 -9.16,-8.939C-9.486,-8.939 -9.783,-8.805 -9.992,-8.584L-9.996,-8.602C-10.205,-8.91 -10.555,-9.111 -10.949,-9.111C-11.375,-9.111 -11.748,-8.877 -11.94,-8.535L-11.948,-8.527C-12.137,-8.673 -12.379,-8.755 -12.635,-8.755C-13.085,-8.755 -13.465,-8.496 -13.66,-8.125L-13.708,-8.129C-13.78,-8.146 -13.859,-8.151 -13.931,-8.151C-14.342,-8.151 -14.697,-7.939 -14.903,-7.621C-14.996,-7.651 -15.096,-7.664 -15.201,-7.664C-15.597,-7.664 -15.944,-7.457 -16.151,-7.151L-16.176,-7.154C-16.355,-7.27 -16.574,-7.34 -16.807,-7.34C-16.889,-7.34 -16.969,-7.332 -17.045,-7.318L-17.051,-7.357C-17.013,-7.472 -16.977,-7.591 -16.949,-7.713L-16.945,-7.705C-16.736,-7.849 -16.605,-8.094 -16.605,-8.365C-16.605,-8.615 -16.715,-8.834 -16.895,-8.979L-16.895,-8.975C-17.041,-10.037 -17.665,-10.943 -18.541,-11.481L-18.537,-11.46C-18.625,-11.823 -18.822,-12.029 -19.166,-12.134C-19.16,-12.305 -19.168,-12.793 -19.168,-12.793L-18.398,-12.802C-18.398,-12.362 -18.038,-12.003 -17.595,-12.003C-17.201,-12.003 -16.865,-12.297 -16.809,-12.68L-16.793,-12.68C-16.431,-12.754 -16.151,-13.077 -16.151,-13.463C-16.151,-13.862 -16.447,-14.191 -16.826,-14.252L-16.811,-14.252C-16.889,-14.611 -17.213,-14.887 -17.595,-14.887C-18.014,-14.887 -18.361,-14.564 -18.393,-14.15L-19.168,-14.15L-19.168,-14.992L-19.149,-14.992C-18.789,-15.076 -18.52,-15.396 -18.52,-15.777C-18.52,-16.168 -18.797,-16.496 -19.168,-16.563L-19.193,-16.586C-19.266,-16.943 -19.586,-17.219 -19.967,-17.225L-19.984,-17.225C-20.371,-17.219 -20.687,-16.943 -20.76,-16.586L-20.787,-16.563C-21.156,-16.496 -21.436,-16.168 -21.436,-15.777C-21.436,-15.396 -21.166,-15.076 -20.805,-14.992L-20.787,-14.992L-20.787,-14.15L-21.561,-14.15C-21.599,-14.564 -21.94,-14.887 -22.357,-14.887C-22.746,-14.887 -23.065,-14.611 -23.143,-14.252L-23.13,-14.252C-23.51,-14.191 -23.799,-13.862 -23.799,-13.463C-23.799,-13.077 -23.526,-12.754 -23.16,-12.68L-23.146,-12.68C-23.089,-12.297 -22.76,-12.003 -22.357,-12.003C-21.916,-12.003 -21.559,-12.362 -21.559,-12.802L-20.787,-12.793C-20.787,-12.793 -20.797,-12.305 -20.791,-12.134C-21.129,-12.029 -21.329,-11.823 -21.42,-11.46L-21.416,-11.481C-22.291,-10.943 -22.915,-10.037 -23.057,-8.975L-23.061,-8.979C-23.236,-8.834 -23.353,-8.615 -23.353,-8.365C-23.353,-8.094 -23.217,-7.849 -23.005,-7.705L-23.005,-7.713C-22.978,-7.591 -22.944,-7.472 -22.909,-7.357L-22.909,-7.318C-22.987,-7.332 -23.065,-7.34 -23.15,-7.34C-23.382,-7.34 -23.598,-7.27 -23.781,-7.154L-23.799,-7.151C-24.006,-7.457 -24.357,-7.664 -24.758,-7.664C-24.858,-7.664 -24.956,-7.651 -25.057,-7.621C-25.254,-7.939 -25.611,-8.151 -26.016,-8.151C-26.095,-8.151 -26.172,-8.146 -26.25,-8.129L-26.297,-8.125C-26.489,-8.496 -26.875,-8.755 -27.321,-8.755C-27.578,-8.755 -27.816,-8.673 -28.009,-8.527L-28.017,-8.535C-28.21,-8.877 -28.58,-9.111 -29.006,-9.111C-29.405,-9.111 -29.756,-8.91 -29.959,-8.602L-29.966,-8.584C-30.176,-8.805 -30.471,-8.939 -30.797,-8.939C-31.431,-8.939 -31.943,-8.428 -31.943,-7.795L-31.955,-7.786C-32.063,-7.816 -32.17,-7.834 -32.287,-7.834C-32.863,-7.834 -33.332,-7.418 -33.424,-6.875C-33.533,-6.906 -33.652,-6.926 -33.775,-6.926C-34.061,-6.926 -34.32,-6.822 -34.519,-6.656C-34.73,-6.926 -35.065,-7.107 -35.435,-7.107C-35.674,-7.107 -35.889,-7.037 -36.074,-6.909L-36.094,-6.898C-36.275,-7.02 -36.498,-7.089 -36.738,-7.089C-37.133,-7.089 -37.479,-6.893 -37.686,-6.586L-37.694,-6.566C-37.846,-6.643 -38.012,-6.684 -38.19,-6.684C-38.695,-6.684 -39.127,-6.349 -39.281,-5.889L-39.283,-5.871C-39.368,-5.889 -39.456,-5.902 -39.548,-5.902C-40.182,-5.902 -40.692,-5.389 -40.692,-4.754C-40.692,-4.674 -40.688,-4.596 -40.668,-4.521L-40.651,-4.482C-41.176,-4.373 -41.566,-3.912 -41.566,-3.356C-41.566,-3.131 -41.5,-2.918 -41.381,-2.732L-41.383,-2.732C-41.697,-2.527 -41.902,-2.18 -41.902,-1.776C-41.902,-1.461 -41.775,-1.171 -41.566,-0.961L-41.573,-0.958C-41.718,-0.79 -41.801,-0.58 -41.801,-0.348C-41.801,0.022 -41.59,0.336 -41.281,0.485L-41.277,0.488C-41.323,0.602 -41.357,0.729 -41.357,0.863C-41.357,1.27 -41.089,1.619 -40.721,1.747L-40.717,1.738C-40.764,1.852 -40.793,1.984 -40.793,2.116C-40.793,2.511 -40.548,2.844 -40.197,2.979C-40.209,3.045 -40.215,3.111 -40.215,3.176C-40.215,3.611 -39.916,3.979 -39.514,4.075L-39.482,4.127C-39.543,4.246 -39.578,4.375 -39.578,4.514C-39.578,4.975 -39.202,5.346 -38.749,5.346C-38.561,5.346 -38.39,5.285 -38.251,5.18L-38.242,5.201C-37.686,5.531 -37.335,6.118 -37.037,6.676L-37.037,6.731C-37.115,6.871 -37.162,7.033 -37.162,7.205C-37.162,7.719 -36.748,8.134 -36.234,8.134C-36.19,8.134 -36.155,8.129 -36.114,8.126C-36.114,8.126 -35.079,9.484 -34.508,10.08L-34.514,10.08C-34.688,10.233 -34.797,10.458 -34.797,10.707C-34.797,11.136 -34.471,11.494 -34.057,11.54L-33.938,12.21C-34.108,12.49 -34.209,12.812 -34.217,13.158C-34.228,13.902 -33.805,14.578 -33.19,14.889L-33.17,15.708C-33.17,15.708 -33.538,15.897 -33.656,16.09C-33.734,16.217 -33.783,16.37 -33.789,16.529C-33.793,16.871 -33.6,17.168 -33.317,17.318C-33.317,17.318 -32.953,17.594 -32,17.726C-28.887,18.137 -25.795,18.305 -22.551,18.413C-21.705,18.427 -20.848,18.434 -19.988,18.434L-19.963,18.434C-19.103,18.434 -18.248,18.427 -17.404,18.413C-14.162,18.305 -11.071,18.137 -7.953,17.726C-7.002,17.594 -6.637,17.318 -6.637,17.318C-6.355,17.168 -6.164,16.871 -6.172,16.529C-6.172,16.37 -6.216,16.217 -6.295,16.09C-6.412,15.897 -6.784,15.708 -6.784,15.708L-6.768,14.889C-6.147,14.578 -5.728,13.902 -5.745,13.158C-5.75,12.812 -5.846,12.49 -6.018,12.21L-5.9,11.54C-5.482,11.494 -5.164,11.136 -5.164,10.707C-5.164,10.458 -5.27,10.233 -5.443,10.08L-5.449,10.08C-4.877,9.484 -3.84,8.126 -3.84,8.126C-3.8,8.129 -3.761,8.134 -3.72,8.134C-3.209,8.134 -2.795,7.719 -2.795,7.205C-2.795,7.033 -2.842,6.871 -2.924,6.731L-2.924,6.676C-2.617,6.118 -2.274,5.531 -1.713,5.201L-1.705,5.18C-1.568,5.285 -1.393,5.346 -1.209,5.346C-0.75,5.346 -0.379,4.975 -0.379,4.514C-0.379,4.375 -0.412,4.246 -0.475,4.127L-0.442,4.075C-0.043,3.979 0.264,3.611 0.264,3.176C0.264,3.111 0.256,3.045 0.237,2.979C0.588,2.844 0.838,2.511 0.838,2.116C0.838,1.984 0.807,1.852 0.76,1.738L0.766,1.747C1.137,1.619 1.4,1.27 1.4,0.863C1.4,0.729 1.373,0.602 1.319,0.488L1.324,0.485C1.637,0.336 1.848,0.022 1.848,-0.348C1.848,-0.58 1.763,-0.79 1.617,-0.958L1.609,-0.961Z" style="fill:rgb(180,151,89);fill-rule:nonzero;"/>
        </g>
        <g transform="matrix(1,0,0,1,417.81,398.971)">
            <path d="M0,-2.088C0.402,-2.088 0.557,-1.92 0.428,-1.785C0.123,-1.592 -0.422,-1.193 -0.422,-1.193L-0.691,-1.193C-1.285,-1.193 -1.492,-1.193 -1.492,-0.965C-1.5,-0.785 -1.492,-0.926 -1.492,-0.667C-1.729,-0.502 -2.364,0 -2.364,0L-2.364,-1.696C-2.364,-1.696 -2.254,-2.088 -1.899,-2.088L0,-2.088" style="fill:rgb(180,151,89);fill-rule:nonzero;"/>
        </g>
        <g transform="matrix(1,0,0,1,418.33,397.922)">
            <path d="M0,1.049L-1.507,1.049L0,0L0,1.049Z" style="fill:rgb(180,151,89);fill-rule:nonzero;"/>
        </g>
        <g transform="matrix(1,0,0,1,417.058,390.307)">
            <path d="M0,1.5C-0.695,1.483 -0.788,1.342 -0.788,0.756C-0.788,0.141 -0.695,0.023 0,0L0.032,0C0.728,0.029 0.82,0.158 0.82,0.756C0.82,1.365 0.728,1.483 0.032,1.5L0,1.5Z" style="fill:rgb(180,151,89);fill-rule:nonzero;"/>
        </g>
        <g transform="matrix(1,0,0,1,426.235,391.063)">
            <path d="M0,1.076C-0.496,0.91 -0.537,0.797 -0.409,0.363C-0.281,-0.076 -0.189,-0.142 0.32,-0.014L0.342,0C0.842,0.157 0.88,0.279 0.754,0.709C0.619,1.148 0.531,1.218 0.027,1.082L0,1.076Z" style="fill:rgb(180,151,89);fill-rule:nonzero;"/>
        </g>
        <g transform="matrix(1,0,0,1,408.008,391.063)">
            <path d="M0,1.076C0.495,0.91 0.534,0.797 0.405,0.363C0.276,-0.076 0.183,-0.142 -0.321,-0.014L-0.347,0C-0.847,0.157 -0.883,0.279 -0.755,0.709C-0.622,1.148 -0.536,1.218 -0.029,1.082L0,1.076Z" style="fill:rgb(180,151,89);fill-rule:nonzero;"/>
        </g>
    </g>
</svg>
