<svg height="40px" width="232.4px" viewBox="0 0 582 101" version="1.1" xmlns="http://www.w3.org/2000/svg" xmlns:xlink="http://www.w3.org/1999/xlink" xml:space="preserve" xmlns:serif="http://www.serif.com/" style="fill-rule:evenodd;clip-rule:evenodd;stroke-miterlimit:1.5;">
	<rect id="logo-txt-wht" x="0.955" y="0.249" width="581" height="100" style="fill:none;" />
	
	<clipPath id="_clip1">
		<rect x="0.955" y="0.249" width="581" height="100" />
	</clipPath><g clip-path="url(#_clip1)">
		<g>
			<rect x="5.955" y="4.986" width="90.526" height="90.526" style="fill:none;stroke:#F0F0F0;stroke-width:8px;" />
			<path d="M96.48,15.49l-27.084,41.485l27.084,38.537" style="fill:none;stroke:#F0F0F0;stroke-width:7px;" />
			<path d="M14.482,95.512l10.809,-38.656l50.871,9.693l20.318,-51.059" style="fill:none;stroke:#F0F0F0;stroke-width:7px;" />
		</g><path d="M165.797,82.496l0,-64.404l-7.916,0l0,19.609l-20.059,0l0,-19.609l-7.916,0l0,19.609l-4.047,0l-4.768,7.646l8.815,0l0,37.149l7.916,0l0,-37.149l20.059,0l0,37.149l7.916,0Z" style="fill:#F0F0F0;fill-rule:nonzero;" />
		<path d="M203.396,83.756c18.709,0 33.551,-14.932 33.551,-33.552c0,-18.529 -14.842,-33.461 -33.551,-33.461c-18.53,0 -33.372,14.932 -33.372,33.461c0,18.62 14.842,33.552 33.372,33.552Zm0,-59.367c14.482,0 25.905,11.423 25.905,25.815c0,14.392 -11.423,25.906 -25.905,25.906c-14.212,0 -25.726,-11.514 -25.726,-25.906c0,-14.392 11.514,-25.815 25.726,-25.815Z" style="fill:#F0F0F0;fill-rule:nonzero;" />
		<path d="M257.996,83.486c10.794,0 20.328,-8.455 20.328,-19.519c0,-8.995 -6.476,-16.641 -15.021,-18.8c-6.387,-1.619 -14.662,-2.339 -14.662,-10.974c0,-5.397 4.497,-9.355 9.804,-9.355c4.138,0 7.196,2.249 9.175,5.757l6.927,-3.868c-3.598,-5.757 -9.265,-9.535 -16.102,-9.535c-9.534,0 -17.72,7.286 -17.72,17.001c0,7.916 5.577,14.572 13.133,16.461c7.736,1.979 16.551,3.148 16.551,13.313c0,6.836 -5.667,11.873 -12.413,11.873c-6.477,0 -10.974,-4.407 -12.413,-10.524l-7.556,1.979c2.338,9.355 10.074,16.191 19.969,16.191Z" style="fill:#F0F0F0;fill-rule:nonzero;" />
		<path d="M340.122,82.496l0,-64.404l-7.916,0l0,19.609l-20.059,0l0,-19.609l-7.915,0l0,19.609l-4.048,0l-4.768,7.646l8.816,0l0,37.149l7.915,0l0,-37.149l20.059,0l0,37.149l7.916,0Z" style="fill:#F0F0F0;fill-rule:nonzero;" />
		<path d="M386.896,82.496l0,-48.303c0,-9.625 -8.096,-17.45 -18.08,-17.45c-10.075,0 -18.17,7.825 -18.17,17.45l0,23.207l-2.968,0l-4.768,7.646l7.736,0l0,17.45l7.916,0l0,-17.45l20.418,0l0,17.45l7.916,0Zm-7.916,-25.096l-20.418,0l0,-23.207c0,-4.857 3.867,-9.804 10.254,-9.804c4.947,0 10.164,3.687 10.164,9.804l0,23.207Z" style="fill:#F0F0F0;fill-rule:nonzero;" />
		<path d="M433.67,82.496l0,-48.303c0,-9.625 -8.095,-17.45 -18.08,-17.45c-10.074,0 -18.17,7.825 -18.17,17.45l0,23.207l-2.968,0l-4.768,7.646l7.736,0l0,17.45l7.916,0l0,-17.45l20.418,0l0,17.45l7.916,0Zm-7.916,-25.096l-20.418,0l0,-23.207c0,-4.857 3.868,-9.804 10.254,-9.804c4.947,0 10.164,3.687 10.164,9.804l0,23.207Z" style="fill:#F0F0F0;fill-rule:nonzero;" />
		<path d="M481.704,82.496l-24.377,-43.176l14.752,-21.228l-9.535,0l-15.381,22.038l0,-22.038l-7.916,0l0,64.404l7.916,0l0,-28.604l5.217,-7.466l20.419,36.07l8.905,0Z" style="fill:#F0F0F0;fill-rule:nonzero;" />
		<path d="M507.519,83.756c18.71,0 33.552,-14.932 33.552,-33.552c0,-18.529 -14.842,-33.461 -33.552,-33.461c-18.529,0 -33.371,14.932 -33.371,33.461c0,18.62 14.842,33.552 33.371,33.552Zm0,-59.367c14.482,0 25.906,11.423 25.906,25.815c0,14.392 -11.424,25.906 -25.906,25.906c-14.212,0 -25.725,-11.514 -25.725,-25.906c0,-14.392 11.513,-25.815 25.725,-25.815Z" style="fill:#F0F0F0;fill-rule:nonzero;" />
		<path d="M579.839,83.756l0,-65.664l-7.915,0l0,38.679l-26.625,-39.848l0,65.573l7.915,0l0,-38.498l26.625,39.758Z" style="fill:#F0F0F0;fill-rule:nonzero;" />
	</g>
</svg>