<svg height="50px" viewBox="0 0 303 69" version="1.1" xmlns="http://www.w3.org/2000/svg" xmlns:xlink="http://www.w3.org/1999/xlink" xml:space="preserve" xmlns:serif="http://www.serif.com/" style="fill-rule:evenodd;clip-rule:evenodd;stroke-linejoin:round;stroke-miterlimit:2;">
    <rect id="Artboard1" x="0" y="0" width="302.2" height="68.8" style="fill:none;"/>
    <g id="Artboard11" serif:id="Artboard1">
        <g transform="matrix(1.97425,0,0,1.97425,269.352,59.7927)">
            <path d="M0,-21.402C3.261,-22.322 6.103,-22.74 8.862,-22.74C13.711,-22.74 16.638,-21.069 16.638,-15.968L16.638,-5.852L10.702,-5.852L10.702,-15.717C10.702,-17.473 10.033,-18.058 8.277,-18.058C7.608,-18.058 7.19,-18.058 6.02,-17.808L6.02,-5.852L0,-5.852L0,-21.402ZM-7.842,-16.135C-7.842,-17.808 -8.51,-18.81 -10.517,-18.81C-12.357,-18.81 -13.443,-17.891 -13.694,-16.135L-7.842,-16.135ZM-13.611,-12.624C-13.36,-11.035 -11.855,-10.115 -9.179,-10.115C-7.257,-10.115 -5.083,-10.367 -3.16,-11.119L-3.16,-6.856C-5.334,-5.852 -7.674,-5.685 -10.099,-5.685C-16.035,-5.685 -19.547,-8.695 -19.547,-14.129C-19.547,-19.396 -16.035,-22.907 -10.517,-22.907C-5.166,-22.907 -2.324,-19.647 -2.324,-14.463L-2.324,-12.624L-13.611,-12.624ZM-115.843,-10.533C-115.592,-10.367 -115.007,-10.199 -114.088,-10.199C-112.164,-10.199 -110.827,-11.621 -110.827,-14.798C-110.827,-14.798 -110.827,-15.215 -110.91,-15.55L-115.843,-10.533ZM-112.164,-17.724C-112.583,-18.058 -113.001,-18.392 -114.088,-18.392C-116.094,-18.392 -117.432,-17.055 -117.348,-13.461C-117.348,-13.461 -117.348,-13.125 -117.264,-12.707L-112.164,-17.724ZM-113.92,-22.74C-108.235,-22.74 -104.975,-19.647 -104.975,-14.38C-104.975,-8.946 -108.403,-5.685 -114.255,-5.685C-119.856,-5.685 -123.368,-8.778 -123.368,-14.129C-123.368,-19.479 -119.69,-22.74 -113.92,-22.74M-28.309,-5.685C-30.566,-5.685 -32.154,-5.935 -34.077,-6.688L-34.077,-10.868C-31.82,-10.115 -30.064,-9.781 -28.476,-9.781C-27.222,-9.781 -26.469,-10.032 -26.469,-10.533C-26.469,-11.286 -27.306,-11.454 -29.479,-12.374C-32.907,-13.794 -34.077,-15.048 -34.077,-17.473C-34.077,-20.733 -31.151,-22.74 -26.386,-22.74C-24.63,-22.74 -23.209,-22.406 -21.286,-21.904L-21.286,-17.64C-22.915,-18.225 -24.3,-18.644 -26.052,-18.644C-27.389,-18.644 -28.225,-18.476 -28.225,-17.891C-28.225,-17.306 -27.389,-17.139 -25.299,-16.135C-21.788,-14.463 -20.701,-13.209 -20.701,-10.868C-20.701,-7.357 -23.293,-5.685 -28.309,-5.685M-52.871,-21.402C-49.611,-22.322 -46.769,-22.74 -43.926,-22.74C-39.077,-22.74 -36.234,-21.069 -36.234,-15.968L-36.234,-5.852L-42.17,-5.852L-42.17,-15.717C-42.17,-17.473 -42.923,-18.058 -44.511,-18.058C-45.18,-18.058 -45.682,-18.058 -46.769,-17.808L-46.769,-5.852L-52.871,-5.852L-52.871,-21.402ZM-60.63,-16.135C-60.63,-17.808 -61.383,-18.81 -63.306,-18.81C-65.145,-18.81 -66.316,-17.891 -66.483,-16.135L-60.63,-16.135ZM-66.4,-12.624C-66.148,-11.035 -64.643,-10.115 -61.969,-10.115C-60.045,-10.115 -57.872,-10.367 -55.948,-11.119L-55.948,-6.856C-58.122,-5.852 -60.547,-5.685 -62.972,-5.685C-68.907,-5.685 -72.335,-8.695 -72.335,-14.129C-72.335,-19.396 -68.823,-22.907 -63.306,-22.907C-57.955,-22.907 -55.113,-19.647 -55.113,-14.463L-55.113,-12.624L-66.4,-12.624ZM-80.011,-17.975C-80.762,-18.142 -81.431,-18.142 -82.017,-18.142C-83.94,-18.142 -85.277,-16.47 -85.277,-14.296C-85.277,-11.788 -84.19,-10.45 -81.85,-10.45C-81.431,-10.45 -80.929,-10.45 -80.011,-10.617L-80.011,-17.975ZM-84.609,1.505C-86.28,1.505 -88.12,1.338 -89.792,0.669L-89.792,-4.096C-87.953,-3.428 -86.28,-3.26 -84.609,-3.26C-81.598,-3.26 -80.177,-3.679 -80.011,-6.186L-80.511,-6.186C-81.349,-5.935 -82.351,-5.768 -83.437,-5.768C-88.371,-5.768 -91.463,-9.196 -91.463,-13.962C-91.463,-19.814 -88.287,-22.74 -81.431,-22.74C-79.007,-22.74 -74.827,-21.82 -74.241,-21.485L-74.241,-9.531C-74.241,-1.504 -76.498,1.505 -84.609,1.505M-102.985,-21.319C-100.225,-22.489 -97.885,-22.74 -95.627,-22.74C-93.955,-22.74 -92.785,-22.573 -92.116,-22.406L-92.116,-17.64C-93.026,-17.92 -93.872,-18.058 -94.875,-18.058C-95.627,-18.058 -96.38,-17.975 -97.05,-17.724L-97.05,-5.852L-102.985,-5.852L-102.985,-21.319Z" style="fill:rgb(35,31,32);fill-rule:nonzero;"/>
        </g>
        <g transform="matrix(1.97425,0,0,1.97425,9.48687,9.38594)">
            <path d="M0,-4.499L3.165,-4.499L3.165,-3.607L1.157,-3.607L1.157,-2.741L3.11,-2.741L3.11,-1.848L1.157,-1.848L1.157,-0.892L3.206,-0.892L3.206,0L0,0L0,-4.499Z" style="fill:rgb(35,31,32);fill-rule:nonzero;"/>
        </g>
        <g transform="matrix(1.97425,0,0,1.97425,19.9378,5.3869)">
            <path d="M0,-0.463C0.131,-0.439 0.214,-0.439 0.312,-0.439C1.073,-0.439 1.372,-0.608 1.372,-1.046C1.372,-1.466 1.067,-1.677 0.457,-1.677C0.353,-1.677 0.242,-1.677 0.124,-1.681L0,-1.677L0,-0.463ZM-1.108,-2.454L-0.996,-2.459C-0.555,-2.49 -0.029,-2.503 0.346,-2.503C1.084,-2.503 1.543,-2.417 1.904,-2.181C2.29,-1.941 2.513,-1.531 2.513,-1.063C2.513,-0.48 2.229,-0.092 1.614,0.171C1.751,0.359 2.977,2.04 2.977,2.04L1.58,2.04C1.493,1.945 0.491,0.347 0.491,0.347L0.312,0.347C0.261,0.347 0.186,0.347 0.096,0.34L0,0.34L0,2.025L-1.108,2.025L-1.108,-2.454Z" style="fill:rgb(35,31,32);fill-rule:nonzero;"/>
        </g>
        <g transform="matrix(1.97425,0,0,1.97425,-677.153,-1523.96)">
            <rect x="356.569" y="772.163" width="1.157" height="4.511" style="fill:rgb(35,31,32);"/>
        </g>
        <g transform="matrix(1.97425,0,0,1.97425,31.4279,9.38693)">
            <path d="M0,-4.511L1.155,-4.511L1.155,-2.444L1.245,-2.539C1.578,-2.92 1.883,-3.273 2.173,-3.638C2.424,-3.953 2.582,-4.158 2.839,-4.511L4.125,-4.511C3.786,-4.062 3.565,-3.785 3.163,-3.311C2.845,-2.931 2.659,-2.709 2.396,-2.422L2.498,-2.267C3.158,-1.337 3.731,-0.606 4.271,0L2.824,0C2.616,-0.244 2.424,-0.505 2.16,-0.854C1.898,-1.201 1.605,-1.624 1.259,-2.153L1.155,-2.306L1.155,0L0,0L0,-4.511Z" style="fill:rgb(35,31,32);fill-rule:nonzero;"/>
        </g>
        <g transform="matrix(1.97425,0,0,1.97425,22.2143,45.246)">
            <path d="M0,-3.594C0,6.104 -1.173,8.243 -8.443,11.705L-11.252,6.522C-6.735,4.594 -6.437,3.39 -6.437,-2.005L-6.437,-15.299L0,-15.299L0,-3.594Z" style="fill:rgb(35,31,32);fill-rule:nonzero;"/>
        </g>
    </g>
</svg>
